<svg width="40" height="40" viewBox="0 0 40 40" fill="none" xmlns="http://www.w3.org/2000/svg">
<path d="M39.4897 0.510321L39.4898 0.510412C40.1701 1.19029 40.1701 2.29207 39.4898 2.97195V2.97197L2.97207 39.4896L2.97198 39.4897C2.63234 39.8299 2.18692 40 1.74127 40C1.29564 40 0.850178 39.8299 0.510201 39.4896H0.510133C-0.170044 38.8096 -0.170044 37.7079 0.510132 37.028L0.510155 37.0279L37.028 0.51039V0.510321C37.7075 -0.170107 38.8102 -0.170107 39.4897 0.510321Z" fill="#F0AD44"/>
<path d="M0 9.00017C0 4.03802 4.03778 0 9 0C13.9622 0 18 4.03771 18 8.99986C18 13.962 13.9625 18 9 18C4.03778 18 0 13.9624 0 9.00017ZM3.5463 8.99986C3.5463 12.0069 5.99259 14.4534 9 14.4534C12.0074 14.4534 14.4537 12.0069 14.4537 8.99986C14.4537 5.99282 12.0074 3.54625 9 3.54625C5.99291 3.54625 3.5463 5.99281 3.5463 8.99986Z" fill="#F0AD44"/>
<path d="M22 31C22 26.0378 26.0377 22 31 22C35.9622 22 40 26.0374 40 31C40 35.9625 35.9622 40 31 40C26.0377 40 22 35.9622 22 31ZM25.5462 30.9997C25.5462 34.0068 27.9925 36.4534 31 36.4534C34.0074 36.4534 36.4537 34.0068 36.4537 30.9997C36.4537 27.9926 34.0071 25.546 31 25.546C27.9929 25.546 25.5462 27.9926 25.5462 30.9997Z" fill="#F0AD44"/>
</svg>
