<svg width="40" height="40" viewBox="0 0 40 40" fill="none" xmlns="http://www.w3.org/2000/svg">
<path d="M12.615 16.3243C12.0583 15.7256 11.0966 15.6757 10.4891 16.2245C9.88167 16.7732 9.83099 17.721 10.3878 18.3197L18.0313 26.5011C18.3351 26.8005 18.6894 27 19.0943 27C19.0943 27 19.0943 27 19.1449 27C19.5498 27 19.9548 26.8503 20.2078 26.551L39.5445 7.5442C40.1518 6.9456 40.1518 5.99771 39.5445 5.44895C38.9371 4.85035 37.9753 4.85035 37.4185 5.44895L19.1957 23.3582L12.615 16.3243Z" fill="#F0AD44"/>
<path d="M38.4925 18.4925C37.6382 18.4925 36.985 19.1458 36.985 20C36.985 29.3467 29.3469 36.9849 20.0001 36.9849C10.6533 36.9849 3.01509 29.3468 3.01509 20.0001C3.01509 10.6534 10.6533 3.01509 20.0001 3.01509C20.8544 3.01509 21.5076 2.3618 21.5076 1.50759C21.5076 0.653379 20.8543 0 20.0001 0C8.99495 0 0 8.99495 0 20.0001C0 31.0052 8.99495 40.0001 20.0001 40.0001C31.0052 40.0001 40.0001 31.0052 40.0001 20.0001C40 19.1458 39.3468 18.4925 38.4925 18.4925Z" fill="#F0AD44"/>
</svg>
