<svg width="46" height="40" viewBox="0 0 46 40" fill="none" xmlns="http://www.w3.org/2000/svg">
<path d="M40.2959 27.7448C39.6536 27.4058 38.86 27.6556 38.5237 28.3025C35.6185 33.8869 29.9277 37.3559 23.6723 37.3559C14.4453 37.3559 6.93688 29.8065 6.91884 20.5201L7.97248 21.581C8.22886 21.8391 8.5649 21.9683 8.90086 21.9683C9.23681 21.9683 9.57293 21.8392 9.82922 21.581C10.342 21.0647 10.342 20.2277 9.82922 19.7113L6.59331 16.4531C6.35259 16.1759 5.99975 16 5.60541 16C5.19655 16 4.83145 16.1882 4.59064 16.4832L1.38457 19.7113C0.871808 20.2276 0.871808 21.0647 1.38457 21.581C1.89725 22.0973 2.72865 22.0972 3.24142 21.581L4.29286 20.5225C4.30205 25.7212 6.3167 30.6075 9.96867 34.2846C13.6291 37.9703 18.4958 40 23.6723 40C30.9079 40 37.4898 35.9879 40.8498 29.5294C41.1863 28.8825 40.9384 28.0836 40.2959 27.7448Z" fill="black"/>
<path d="M40.2959 27.7448C39.6536 27.4058 38.86 27.6556 38.5237 28.3025C35.6185 33.8869 29.9277 37.3559 23.6723 37.3559C14.4453 37.3559 6.93688 29.8065 6.91884 20.5201L7.97248 21.581C8.22886 21.8391 8.5649 21.9683 8.90086 21.9683C9.23681 21.9683 9.57293 21.8392 9.82922 21.581C10.342 21.0647 10.342 20.2277 9.82922 19.7113L6.59331 16.4531C6.35259 16.1759 5.99975 16 5.60541 16C5.19655 16 4.83145 16.1882 4.59064 16.4832L1.38457 19.7113C0.871808 20.2276 0.871808 21.0647 1.38457 21.581C1.89725 22.0973 2.72865 22.0972 3.24142 21.581L4.29286 20.5225C4.30205 25.7212 6.3167 30.6075 9.96867 34.2846C13.6291 37.9703 18.4958 40 23.6723 40C30.9079 40 37.4898 35.9879 40.8498 29.5294C41.1863 28.8825 40.9384 28.0836 40.2959 27.7448Z" fill="#F0AD44"/>
<path d="M45.6155 18.419C45.1027 17.9027 44.2714 17.9027 43.7586 18.419L42.7071 19.4777C42.6979 14.2788 40.6833 9.39257 37.0312 5.71536C33.371 2.02978 28.5043 0 23.3277 0C16.0922 0 9.51026 4.01213 6.15023 10.4707C5.81366 11.1174 6.06165 11.9164 6.70405 12.2552C7.34627 12.594 8.13984 12.3443 8.47633 11.6976C11.3816 6.1132 17.0724 2.64408 23.3277 2.64408C32.5545 2.64408 40.0629 10.1935 40.0811 19.4798L39.0275 18.4189C38.5149 17.9026 37.6835 17.9026 37.1707 18.4189C36.6579 18.9352 36.6579 19.7722 37.1707 20.2886L40.4058 23.5459C40.6465 23.8236 40.9997 24 41.3946 24C41.8033 24 42.1682 23.8119 42.409 23.5171L45.6154 20.2887C46.1282 19.7722 46.1282 18.9352 45.6155 18.419Z" fill="black"/>
<path d="M45.6155 18.419C45.1027 17.9027 44.2714 17.9027 43.7586 18.419L42.7071 19.4777C42.6979 14.2788 40.6833 9.39257 37.0312 5.71536C33.371 2.02978 28.5043 0 23.3277 0C16.0922 0 9.51026 4.01213 6.15023 10.4707C5.81366 11.1174 6.06165 11.9164 6.70405 12.2552C7.34627 12.594 8.13984 12.3443 8.47633 11.6976C11.3816 6.1132 17.0724 2.64408 23.3277 2.64408C32.5545 2.64408 40.0629 10.1935 40.0811 19.4798L39.0275 18.4189C38.5149 17.9026 37.6835 17.9026 37.1707 18.4189C36.6579 18.9352 36.6579 19.7722 37.1707 20.2886L40.4058 23.5459C40.6465 23.8236 40.9997 24 41.3946 24C41.8033 24 42.1682 23.8119 42.409 23.5171L45.6154 20.2887C46.1282 19.7722 46.1282 18.9352 45.6155 18.419Z" fill="#F0AD44"/>
<path d="M25.8435 18.1891C24.5962 17.7693 23.2167 17.2623 22.4431 16.6847C22.1998 16.5032 22.0948 16.0875 22.1813 15.6504C22.2244 15.4323 22.426 14.7034 23.2093 14.4788C24.495 14.1103 25.3769 14.5992 25.6964 14.8265C26.3064 15.2605 27.1702 15.1417 27.6262 14.5611C28.0822 13.9805 27.9574 13.1578 27.3475 12.7237C27.0582 12.5177 26.3332 12.0662 25.2939 11.847V11.3126C25.2939 10.5877 24.6765 10 23.9151 10C23.1536 10 22.5362 10.5877 22.5362 11.3126V11.9325C22.4954 11.9433 22.4549 11.9533 22.4139 11.965C20.9037 12.3982 19.7763 13.6239 19.4713 15.1642C19.1907 16.5818 19.6772 17.956 20.7412 18.7503C21.6177 19.4048 22.8297 19.9593 24.9245 20.6642C26.3192 21.1335 26.289 22.2081 26.2112 22.6483C26.0537 23.5409 25.265 24.5053 23.9058 24.514C22.5731 24.5229 22.1577 24.4597 21.1339 23.8221C20.4967 23.4252 19.6421 23.5952 19.2251 24.2019C18.8083 24.8086 18.9869 25.622 19.6242 26.0189C20.7285 26.7066 21.5432 26.9856 22.5362 27.0874V27.6873C22.5362 28.4122 23.1536 29 23.9151 29C24.6765 29 25.2939 28.4122 25.2939 27.6873V26.9613C26.0535 26.7622 26.7458 26.3985 27.3374 25.881C28.1758 25.1476 28.7416 24.1542 28.9307 23.0835C29.3152 20.9068 28.0746 18.9398 25.8435 18.1891Z" fill="black"/>
<path d="M25.8435 18.1891C24.5962 17.7693 23.2167 17.2623 22.4431 16.6847C22.1998 16.5032 22.0948 16.0875 22.1813 15.6504C22.2244 15.4323 22.426 14.7034 23.2093 14.4788C24.495 14.1103 25.3769 14.5992 25.6964 14.8265C26.3064 15.2605 27.1702 15.1417 27.6262 14.5611C28.0822 13.9805 27.9574 13.1578 27.3475 12.7237C27.0582 12.5177 26.3332 12.0662 25.2939 11.847V11.3126C25.2939 10.5877 24.6765 10 23.9151 10C23.1536 10 22.5362 10.5877 22.5362 11.3126V11.9325C22.4954 11.9433 22.4549 11.9533 22.4139 11.965C20.9037 12.3982 19.7763 13.6239 19.4713 15.1642C19.1907 16.5818 19.6772 17.956 20.7412 18.7503C21.6177 19.4048 22.8297 19.9593 24.9245 20.6642C26.3192 21.1335 26.289 22.2081 26.2112 22.6483C26.0537 23.5409 25.265 24.5053 23.9058 24.514C22.5731 24.5229 22.1577 24.4597 21.1339 23.8221C20.4967 23.4252 19.6421 23.5952 19.2251 24.2019C18.8083 24.8086 18.9869 25.622 19.6242 26.0189C20.7285 26.7066 21.5432 26.9856 22.5362 27.0874V27.6873C22.5362 28.4122 23.1536 29 23.9151 29C24.6765 29 25.2939 28.4122 25.2939 27.6873V26.9613C26.0535 26.7622 26.7458 26.3985 27.3374 25.881C28.1758 25.1476 28.7416 24.1542 28.9307 23.0835C29.3152 20.9068 28.0746 18.9398 25.8435 18.1891Z" fill="#F0AD44"/>
</svg>
