<svg width="16" height="22" viewBox="0 0 16 22" fill="none" xmlns="http://www.w3.org/2000/svg">
<path d="M14.5002 9.7001H13.2002V5.8001C13.2002 2.9401 10.8602 0.600098 8.0002 0.600098C5.1402 0.600098 2.8002 2.9401 2.8002 5.8001V9.7001H1.5002C0.850195 9.7001 0.200195 10.3501 0.200195 11.0001V20.1001C0.200195 20.7501 0.850195 21.4001 1.5002 21.4001H14.5002C15.1502 21.4001 15.8002 20.7501 15.8002 20.1001V11.0001C15.8002 10.3501 15.1502 9.7001 14.5002 9.7001ZM9.3002 18.8001H6.7002L7.2202 15.9401C6.5702 15.6801 6.0502 14.9001 6.0502 14.2501C6.0502 13.2101 6.9602 12.3001 8.0002 12.3001C9.0402 12.3001 9.9502 13.2101 9.9502 14.2501C9.9502 15.0301 9.5602 15.6801 8.7802 15.9401L9.3002 18.8001ZM10.6002 9.7001H5.4002V5.8001C5.4002 4.3701 6.5702 3.2001 8.0002 3.2001C9.4302 3.2001 10.6002 4.3701 10.6002 5.8001V9.7001Z" fill="#F0AD48"/>
</svg>
